<?xml version="1.0" encoding="utf-8"?>
<!-- Generator: Adobe Illustrator 24.0.2, SVG Export Plug-In . SVG Version: 6.00 Build 0)  -->
<svg version="1.1" xmlns="http://www.w3.org/2000/svg" xmlns:xlink="http://www.w3.org/1999/xlink" x="0px" y="0px"
	 viewBox="0 0 459.55 449.95" style="enable-background:new 0 0 459.55 449.95;" xml:space="preserve">
<style type="text/css">
	.st0{fill:#62C6C1;}
	.st1{fill:#040002;}
	.st2{fill:url(#SVGID_1_);}
	.st3{fill:url(#SVGID_2_);}
	.st4{fill:url(#SVGID_3_);}
	.st5{fill:url(#SVGID_4_);}
	.st6{fill:url(#SVGID_5_);}
	.st7{opacity:0.25;fill:url(#SVGID_6_);}
	.st8{fill:url(#SVGID_7_);}
	.st9{fill:url(#SVGID_8_);}
	.st10{fill:url(#SVGID_9_);}
	.st11{fill:url(#SVGID_10_);}
	.st12{fill:url(#SVGID_11_);}
	.st13{fill:url(#SVGID_12_);}
	.st14{fill:url(#SVGID_13_);}
	.st15{fill:url(#SVGID_14_);}
	.st16{fill:url(#SVGID_15_);}
	.st17{fill:url(#SVGID_16_);}
	.st18{fill:url(#SVGID_17_);}
	.st19{fill:#FFFFFF;}
	.st20{fill:#CAC2E0;}
	.st21{fill:url(#SVGID_18_);}
	.st22{fill:url(#SVGID_19_);}
	.st23{fill:url(#SVGID_20_);}
	.st24{fill:url(#SVGID_21_);}
	.st25{fill:url(#SVGID_22_);}
	.st26{opacity:0.08;fill:#FFFFFF;}
	.st27{fill:#4153A4;}
	.st28{fill:#B32B89;}
</style>
<g id="Layer_1">
</g>
<g id="Layer_2">
	<rect x="45.18" y="44.24" class="st0" width="369.18" height="361.47"/>
	<path class="st1" d="M203.51,143.97c0,0-31.04-10.47-32.69-12.86c-1.65-2.39-0.55-4.59,7.71-5.14c8.27-0.55,12.49-3.31,13.04-15.43
		s-2.94-21.12,11.94-29.57s24.24-5.51,32.69,1.84c8.45,7.35,12.86,8.63,16.53,7.71c3.67-0.92,7.71-4.04,10.1-6.8s7.16-5.51,5.88,2.2
		c-1.29,7.71-10.1,32.51-10.1,32.51L203.51,143.97z"/>
	<linearGradient id="SVGID_1_" gradientUnits="userSpaceOnUse" x1="250.7755" y1="195.2191" x2="250.7755" y2="310.4331">
		<stop  offset="0.2678" style="stop-color:#FDD900"/>
		<stop  offset="0.3473" style="stop-color:#FCCB04"/>
		<stop  offset="0.4979" style="stop-color:#F9A60E"/>
		<stop  offset="0.7022" style="stop-color:#F46A1E"/>
		<stop  offset="0.778" style="stop-color:#F25224"/>
	</linearGradient>
	<path class="st2" d="M270.98,278.97c0,0,0-36.49,0-59.27s-15.92-34.04-27.43-34.04h-12.98c0,0,0,37.71,0,59.76
		S244.29,279.71,270.98,278.97z"/>
	<linearGradient id="SVGID_2_" gradientUnits="userSpaceOnUse" x1="245.7551" y1="181.2599" x2="245.7551" y2="271.8585">
		<stop  offset="0.1718" style="stop-color:#FDD900"/>
		<stop  offset="0.2474" style="stop-color:#FCD201"/>
		<stop  offset="0.3578" style="stop-color:#F9BE05"/>
		<stop  offset="0.4897" style="stop-color:#F59E0C"/>
		<stop  offset="0.6381" style="stop-color:#EE7215"/>
		<stop  offset="0.7961" style="stop-color:#E63A20"/>
	</linearGradient>
	<path class="st3" d="M243.55,185.67h-2.69v85.14c2.73,2.29,6,4.11,9.8,5.45v-89.3C248.22,186.1,245.8,185.67,243.55,185.67z"/>
	<linearGradient id="SVGID_3_" gradientUnits="userSpaceOnUse" x1="255.6735" y1="185.6681" x2="255.6735" y2="285.846">
		<stop  offset="0.1607" style="stop-color:#FDD900"/>
		<stop  offset="0.234" style="stop-color:#FCD102"/>
		<stop  offset="0.3464" style="stop-color:#FABC07"/>
		<stop  offset="0.4836" style="stop-color:#F7990F"/>
		<stop  offset="0.6391" style="stop-color:#F36919"/>
		<stop  offset="0.7596" style="stop-color:#EF3F23"/>
	</linearGradient>
	<path class="st4" d="M250.65,186.97v89.3c3.01,1.07,6.36,1.83,10.04,2.27v-85.27C257.6,190.29,254.11,188.19,250.65,186.97z"/>
	<linearGradient id="SVGID_4_" gradientUnits="userSpaceOnUse" x1="235.7143" y1="181.5048" x2="235.7143" y2="273.7739">
		<stop  offset="0.1009" style="stop-color:#FDD900"/>
		<stop  offset="0.3947" style="stop-color:#F8A50F"/>
		<stop  offset="0.783" style="stop-color:#F26322"/>
	</linearGradient>
	<path class="st5" d="M230.57,185.67c0,0,0,37.71,0,59.76c0,11.07,3.46,19.66,10.29,25.39v-85.14H230.57z"/>
	<linearGradient id="SVGID_5_" gradientUnits="userSpaceOnUse" x1="210.9048" y1="124.609" x2="228.3538" y2="252.9967">
		<stop  offset="0" style="stop-color:#CC469B"/>
		<stop  offset="0.1299" style="stop-color:#B0489D"/>
		<stop  offset="0.3568" style="stop-color:#844C9F"/>
		<stop  offset="0.561" style="stop-color:#654FA1"/>
		<stop  offset="0.7329" style="stop-color:#5250A3"/>
		<stop  offset="0.852" style="stop-color:#4B51A3"/>
	</linearGradient>
	<path class="st6" d="M244.84,178.69l3.67,4.59c0,0,0,10.29,0,32.33s-16.71,28.65-28.65,28.65c-11.94,0-20.76-9-24.24-18.73
		s-4.59-45.73-1.84-62.08c2.76-16.35,5.14-21.12,28.84-35.08L244.84,178.69z"/>
	<linearGradient id="SVGID_6_" gradientUnits="userSpaceOnUse" x1="212.8875" y1="125.0064" x2="230.3364" y2="253.3942">
		<stop  offset="0" style="stop-color:#CC469B"/>
		<stop  offset="0.1299" style="stop-color:#B0489D"/>
		<stop  offset="0.3568" style="stop-color:#844C9F"/>
		<stop  offset="0.561" style="stop-color:#654FA1"/>
		<stop  offset="0.7329" style="stop-color:#5250A3"/>
		<stop  offset="0.852" style="stop-color:#4B51A3"/>
	</linearGradient>
	<path class="st7" d="M244.52,185.07l6.2,1.9c0,0,0,6.97,0,29.01s-16.71,28.65-28.65,28.65c-11.94,0-20.76-9-24.24-18.73
		s-4.59-45.73-1.84-62.08c2.76-16.35,5.14-21.12,28.84-35.08L244.52,185.07z"/>
	<linearGradient id="SVGID_7_" gradientUnits="userSpaceOnUse" x1="236.2959" y1="152.2395" x2="236.2959" y2="258.7708">
		<stop  offset="0.2835" style="stop-color:#CC469B"/>
		<stop  offset="0.8073" style="stop-color:#4B51A3"/>
	</linearGradient>
	<path class="st8" d="M240.8,169.54l-9-20.38c0,25.66,0,76.19,0,92.89c3.24-1.26,6.35-3.12,9-5.72v-50.66V169.54z"/>
	<linearGradient id="SVGID_8_" gradientUnits="userSpaceOnUse" x1="236.9388" y1="164.8212" x2="281.0204" y2="164.8212">
		<stop  offset="0.2095" style="stop-color:#F68D1E"/>
		<stop  offset="0.2666" style="stop-color:#F4761F"/>
		<stop  offset="0.3463" style="stop-color:#F25E20"/>
		<stop  offset="0.4365" style="stop-color:#F14B21"/>
		<stop  offset="0.542" style="stop-color:#F03E22"/>
		<stop  offset="0.6767" style="stop-color:#EF3622"/>
		<stop  offset="0.9413" style="stop-color:#EF3422"/>
	</linearGradient>
	<path class="st9" d="M245.02,150.95l32.88-4.59l-0.37,6.43l3.49,6.98c0,0-5.14,23.14-32.51,23.51l-11.57-11.2l7.16-15.24
		L245.02,150.95z"/>
	<linearGradient id="SVGID_9_" gradientUnits="userSpaceOnUse" x1="238.4927" y1="135.5901" x2="323.2594" y2="165.3198">
		<stop  offset="0.2282" style="stop-color:#EF3424"/>
		<stop  offset="0.2951" style="stop-color:#F03B23"/>
		<stop  offset="0.3915" style="stop-color:#F14E1E"/>
		<stop  offset="0.5059" style="stop-color:#F46D18"/>
		<stop  offset="0.6339" style="stop-color:#F8990E"/>
		<stop  offset="0.7718" style="stop-color:#FCD002"/>
		<stop  offset="0.7924" style="stop-color:#FDD900"/>
	</linearGradient>
	<path class="st10" d="M299.88,186.89c0,0,12.86-21.55,0.98-44.69c-11.86-23.11-33.67-27.55-45.18-26.2
		c-12.12,1.42-10.9,7.96-10.9,7.96l2.69,29.39C247.47,153.34,288.37,149.67,299.88,186.89z"/>
	<linearGradient id="SVGID_10_" gradientUnits="userSpaceOnUse" x1="264.9383" y1="156.3829" x2="307.5824" y2="199.027">
		<stop  offset="0" style="stop-color:#FDD900"/>
		<stop  offset="0.0308" style="stop-color:#FCC903"/>
		<stop  offset="0.1159" style="stop-color:#F8A10B"/>
		<stop  offset="0.2069" style="stop-color:#F57F12"/>
		<stop  offset="0.3035" style="stop-color:#F36418"/>
		<stop  offset="0.4075" style="stop-color:#F14F1D"/>
		<stop  offset="0.5227" style="stop-color:#F04020"/>
		<stop  offset="0.6578" style="stop-color:#EF3721"/>
		<stop  offset="0.8614" style="stop-color:#EF3422"/>
	</linearGradient>
	<path class="st11" d="M272.2,154.57c-10.33-3.56-20.26-3.5-24.92-3.2l0.18,1.97c0,0,40.9-3.67,52.41,33.55
		C299.39,176.12,286.41,159.46,272.2,154.57z"/>
	<linearGradient id="SVGID_11_" gradientUnits="userSpaceOnUse" x1="238.898" y1="160.5143" x2="301.1235" y2="160.5143">
		<stop  offset="0.0587" style="stop-color:#EF3422"/>
		<stop  offset="0.2812" style="stop-color:#EF3721"/>
		<stop  offset="0.4288" style="stop-color:#F04020"/>
		<stop  offset="0.5547" style="stop-color:#F14F1D"/>
		<stop  offset="0.6684" style="stop-color:#F36418"/>
		<stop  offset="0.7739" style="stop-color:#F57F12"/>
		<stop  offset="0.8733" style="stop-color:#F8A10B"/>
		<stop  offset="0.9663" style="stop-color:#FCC903"/>
		<stop  offset="1" style="stop-color:#FDD900"/>
	</linearGradient>
	<path class="st12" d="M291.8,154.57c-10.67-15.76-29.99-21.92-46.06-20.13l1.55,16.93c4.66-0.3,14.59-0.36,24.92,3.2
		c14.2,4.9,27.18,21.55,27.67,32.33C299.88,186.89,302.57,170.48,291.8,154.57z"/>
	<linearGradient id="SVGID_12_" gradientUnits="userSpaceOnUse" x1="250.2254" y1="131.1391" x2="338.1438" y2="174.9758">
		<stop  offset="0" style="stop-color:#EF4323"/>
		<stop  offset="0.0353" style="stop-color:#EF4822"/>
		<stop  offset="0.249" style="stop-color:#F2641B"/>
		<stop  offset="0.3736" style="stop-color:#F36E19"/>
		<stop  offset="0.4147" style="stop-color:#F47617"/>
		<stop  offset="0.4766" style="stop-color:#F68A12"/>
		<stop  offset="0.5517" style="stop-color:#F9AC0A"/>
		<stop  offset="0.6334" style="stop-color:#FDD900"/>
	</linearGradient>
	<path class="st13" d="M244.78,123.95l0.85,9.26c4.3-0.49,46.67-4.03,55.97,43.15c0,0,6.93-16.78-6.61-36.98
		c-13.74-20.49-42.65-19.86-49.86-17.03C244.72,123.3,244.78,123.95,244.78,123.95z"/>
	<linearGradient id="SVGID_13_" gradientUnits="userSpaceOnUse" x1="235.7106" y1="144.3069" x2="320.2004" y2="173.9395">
		<stop  offset="0" style="stop-color:#EF4323"/>
		<stop  offset="0.0357" style="stop-color:#F15A1E;stop-opacity:0.9646"/>
		<stop  offset="0.1044" style="stop-color:#F58115;stop-opacity:0.8966"/>
		<stop  offset="0.1758" style="stop-color:#F8A10D;stop-opacity:0.8259"/>
		<stop  offset="0.2494" style="stop-color:#FABA07;stop-opacity:0.753"/>
		<stop  offset="0.3262" style="stop-color:#FCCB03;stop-opacity:0.6769"/>
		<stop  offset="0.4084" style="stop-color:#FDD601;stop-opacity:0.5956"/>
		<stop  offset="0.5049" style="stop-color:#FDD900;stop-opacity:0.5"/>
	</linearGradient>
	<path class="st14" d="M300.16,185.95c1.49-5.34,1.35-11.01-0.21-16.33c-11.82-40.08-50.23-36.86-54.32-36.4l0.11,1.22
		c16.07-1.79,35.39,4.37,46.06,20.13c10.78,15.92,8.08,32.33,8.08,32.33C299.98,186.58,300.07,186.26,300.16,185.95z"/>
	<linearGradient id="SVGID_14_" gradientUnits="userSpaceOnUse" x1="257.7792" y1="173.9849" x2="270.2824" y2="152.4018">
		<stop  offset="0.0858" style="stop-color:#FDD900"/>
		<stop  offset="0.1551" style="stop-color:#FCD203"/>
		<stop  offset="0.2568" style="stop-color:#FBBE0C"/>
		<stop  offset="0.378" style="stop-color:#F89E1B"/>
		<stop  offset="0.3882" style="stop-color:#F89B1C"/>
		<stop  offset="0.5567" style="stop-color:#F4721E"/>
		<stop  offset="0.7606" style="stop-color:#F04521"/>
		<stop  offset="0.8638" style="stop-color:#EF3422"/>
	</linearGradient>
	<path class="st15" d="M265.04,156.83c-7.71-2.2-16.35-3.12-13.96,5.33c1.58,5.6,8.16,12.72,14.29,17.16
		c8.58-4.5,12.7-11.76,14.47-16.06C277.87,162.15,271.46,158.67,265.04,156.83z"/>
	<linearGradient id="SVGID_15_" gradientUnits="userSpaceOnUse" x1="244.6531" y1="188.2395" x2="244.6531" y2="239.6891">
		<stop  offset="0.2709" style="stop-color:#C94799"/>
		<stop  offset="0.3665" style="stop-color:#C54799"/>
		<stop  offset="0.4578" style="stop-color:#BA4899"/>
		<stop  offset="0.5472" style="stop-color:#A64A98"/>
		<stop  offset="0.6352" style="stop-color:#8C4C97"/>
		<stop  offset="0.6508" style="stop-color:#864C97"/>
	</linearGradient>
	<path class="st16" d="M248.51,183.28l-3.67-4.59l-4.04-9.15v16.13v50.66c4.55-4.47,7.71-11.14,7.71-20.72
		C248.51,193.57,248.51,183.28,248.51,183.28z"/>
	<linearGradient id="SVGID_16_" gradientUnits="userSpaceOnUse" x1="244.6531" y1="188.2395" x2="244.6531" y2="239.6891">
		<stop  offset="0.4274" style="stop-color:#C94799"/>
		<stop  offset="0.5014" style="stop-color:#C54799"/>
		<stop  offset="0.5686" style="stop-color:#BA4899"/>
		<stop  offset="0.6332" style="stop-color:#A84998"/>
		<stop  offset="0.6958" style="stop-color:#8E4B97"/>
		<stop  offset="0.7123" style="stop-color:#864C97"/>
	</linearGradient>
	<path class="st17" d="M248.51,183.28l-3.67-4.59l-4.04-9.15v16.13v50.66c4.55-4.47,7.71-11.14,7.71-20.72
		C248.51,193.57,248.51,183.28,248.51,183.28z"/>
	<linearGradient id="SVGID_17_" gradientUnits="userSpaceOnUse" x1="225.4672" y1="166.9334" x2="225.4672" y2="242.5275">
		<stop  offset="0" style="stop-color:#C44699"/>
		<stop  offset="0.1253" style="stop-color:#AC489B"/>
		<stop  offset="0.3886" style="stop-color:#6F4EA0"/>
		<stop  offset="0.4689" style="stop-color:#5B50A2"/>
		<stop  offset="0.7119" style="stop-color:#5B50A2"/>
		<stop  offset="0.8316" style="stop-color:#5550A2"/>
		<stop  offset="0.9915" style="stop-color:#4452A3"/>
		<stop  offset="1" style="stop-color:#4352A3"/>
	</linearGradient>
	<path class="st18" d="M222.61,128.36c-1.22,0.72-2.37,1.41-3.47,2.08l2.74,32.09l0.55,7.9v65.72c3.03-0.24,6.26-0.89,9.37-2.1
		c0-16.7,0-59.22,0-84.88L222.61,128.36z"/>
	<path class="st19" d="M248.51,118.14v65.14c0,0-20.02,0.92-29.02-17.45s-0.73-32.51,3.12-37.47L248.51,118.14z"/>
	<path class="st20" d="M248.51,183.28v-6.02c-6.47-0.98-15.98-3.75-23.33-11.42c-8.35-8.72-7.99-22.17-6.9-30.1
		c-3.05,7.02-4.93,17.58,1.2,30.1C228.49,184.2,248.51,183.28,248.51,183.28z"/>
	<linearGradient id="SVGID_18_" gradientUnits="userSpaceOnUse" x1="213.27" y1="127.8079" x2="207.1475" y2="189.5222">
		<stop  offset="0.1984" style="stop-color:#C94799"/>
		<stop  offset="0.2955" style="stop-color:#C34799"/>
		<stop  offset="0.4243" style="stop-color:#B2499B"/>
		<stop  offset="0.5709" style="stop-color:#974B9D"/>
		<stop  offset="0.7294" style="stop-color:#714EA0"/>
		<stop  offset="0.8621" style="stop-color:#4B51A3"/>
	</linearGradient>
	<path class="st21" d="M217.56,131.4c-4.9,5.71-14.79,20.63-15.89,48.88l13.22-2.2c0,0-8.17-19.6,4.24-47.64
		C218.6,130.76,218.08,131.09,217.56,131.4z"/>
	<linearGradient id="SVGID_19_" gradientUnits="userSpaceOnUse" x1="202.3866" y1="159.2721" x2="133.7028" y2="229.3027">
		<stop  offset="0.148" style="stop-color:#4B51A3"/>
		<stop  offset="0.3025" style="stop-color:#5D50A2"/>
		<stop  offset="0.6108" style="stop-color:#8A4C9F"/>
		<stop  offset="1" style="stop-color:#CC469B"/>
	</linearGradient>
	<path class="st22" d="M135.18,222.59c0,0,4.96-27.37,21.49-48.49s37.47-20.94,41.88-20.57c0,0,5.33,2.02,5.33,18
		C203.88,186.43,194.69,221.67,135.18,222.59z"/>
	<linearGradient id="SVGID_20_" gradientUnits="userSpaceOnUse" x1="203.8392" y1="151.3743" x2="191.3093" y2="255.9257">
		<stop  offset="0.0363" style="stop-color:#4A51A4"/>
		<stop  offset="0.0476" style="stop-color:#4B51A4"/>
		<stop  offset="0.215" style="stop-color:#5250A3"/>
		<stop  offset="0.3332" style="stop-color:#604FA2"/>
		<stop  offset="0.5587" style="stop-color:#874CA0"/>
		<stop  offset="0.8659" style="stop-color:#C4479C"/>
		<stop  offset="0.9056" style="stop-color:#CC469B"/>
	</linearGradient>
	<path class="st23" d="M188.45,246.89c0,0-14.69-31.59-12-56.57s22.1-36.8,22.1-36.8s25.07,9.73,22.96,39.49
		C219.56,220.44,197.27,241.75,188.45,246.89z"/>
	<linearGradient id="SVGID_21_" gradientUnits="userSpaceOnUse" x1="135.1837" y1="192.0967" x2="202.2268" y2="192.0967">
		<stop  offset="0.1089" style="stop-color:#C94799"/>
		<stop  offset="0.2393" style="stop-color:#C34799"/>
		<stop  offset="0.4122" style="stop-color:#B2499B"/>
		<stop  offset="0.609" style="stop-color:#974B9D"/>
		<stop  offset="0.8219" style="stop-color:#714EA0"/>
		<stop  offset="1" style="stop-color:#4B51A3"/>
	</linearGradient>
	<path class="st24" d="M135.18,222.59c24.27-0.37,40.16-6.46,50.48-14.54c21.16-22.44,16.01-46.44,16.01-46.44
		s-1.47,19.84-21.67,34.16c-16.28,11.55-34.59,12.83-41.08,12.9C136.22,216.87,135.18,222.59,135.18,222.59z"/>
	<linearGradient id="SVGID_22_" gradientUnits="userSpaceOnUse" x1="174.6802" y1="234.9257" x2="225.619" y2="144.8033">
		<stop  offset="0.1045" style="stop-color:#C44699"/>
		<stop  offset="0.3638" style="stop-color:#8E4B9E"/>
		<stop  offset="0.6349" style="stop-color:#5250A3"/>
		<stop  offset="0.7817" style="stop-color:#5B50A2"/>
	</linearGradient>
	<path class="st25" d="M203.14,160.69c0,0,5.63,17.14-1.22,33.55c-6.65,15.9-22.49,21.91-23.46,22.27
		c1.41,6.55,3.27,12.66,4.99,17.66c10.94-10.19,25.87-30.97,27.04-47.77C211.71,168.77,203.14,160.69,203.14,160.69z"/>
	<path class="st26" d="M227.57,131.48l-4.96-3.12c0,0-8.82,7.59-9.06,25.96c-0.24,18.37,14.26,34.42,34.95,34.66v-2.23V160.2
		l-19.65-28.53L227.57,131.48z"/>
	<g>
		<path class="st19" d="M232.9,107.32c-0.03,0-0.05,0-0.08,0l-28.74-1.82c-0.86-0.05-1.5-0.77-1.45-1.59
			c0.05-0.83,0.78-1.47,1.65-1.4l28.74,1.82c0.86,0.05,1.5,0.77,1.45,1.59C234.42,106.72,233.72,107.34,232.9,107.32z"/>
	</g>
	<g>
		<path class="st19" d="M200.7,109.41c-0.47,0-0.93-0.22-1.22-0.63c-0.48-0.67-0.33-1.61,0.35-2.09c1.21-0.87,2.47-2.02,2.78-2.54
			c-0.18-0.5-1.11-1.87-2.06-2.97c-0.54-0.63-0.48-1.57,0.15-2.12c0.63-0.54,1.57-0.48,2.12,0.15c1.05,1.21,2.82,3.47,2.82,5.02
			c0,1.65-2.21,3.57-4.06,4.89C201.3,109.32,201,109.41,200.7,109.41z"/>
	</g>
	<g>
		<path class="st19" d="M236.22,101.2c0.47,0,0.93,0.2,1.22,0.59c0.48,0.63,0.33,1.51-0.35,1.96c-1.21,0.81-2.47,1.9-2.78,2.38
			c0.18,0.47,1.11,1.76,2.06,2.78c0.54,0.59,0.48,1.47-0.15,1.98c-0.63,0.51-1.57,0.45-2.12-0.14c-1.05-1.13-2.82-3.25-2.82-4.71
			c0-1.55,2.21-3.35,4.06-4.59C235.61,101.29,235.92,101.2,236.22,101.2z"/>
	</g>
	<g>
		<path class="st19" d="M229.31,92.87c-0.01,0.02-0.03,0.04-0.04,0.06l-16.13,23.86c-0.48,0.71-1.42,0.91-2.11,0.44
			c-0.69-0.47-0.87-1.42-0.37-2.13l16.13-23.85c0.48-0.71,1.42-0.91,2.11-0.44C229.56,91.26,229.74,92.17,229.31,92.87z"/>
	</g>
	<g>
		<path class="st19" d="M213.95,121.2c-0.24,0.4-0.64,0.7-1.11,0.76c-0.77,0.11-1.43-0.46-1.46-1.26c-0.07-1.44-0.33-3.06-0.59-3.56
			c-0.48-0.08-2.03,0.09-3.36,0.41c-0.76,0.18-1.47-0.31-1.58-1.1c-0.11-0.79,0.42-1.58,1.19-1.76c1.48-0.35,4.15-0.83,5.36-0.12
			c1.29,0.76,1.68,3.55,1.78,5.75C214.18,120.64,214.1,120.94,213.95,121.2z"/>
	</g>
	<g>
		<path class="st19" d="M225.51,87.45c0.24-0.4,0.65-0.7,1.13-0.76c0.79-0.1,1.47,0.48,1.51,1.29c0.09,1.46,0.39,3.09,0.65,3.6
			c0.5,0.09,2.08-0.07,3.44-0.36c0.78-0.17,1.51,0.34,1.63,1.13c0.12,0.8-0.41,1.58-1.19,1.75c-1.51,0.33-4.23,0.78-5.49,0.04
			c-1.33-0.78-1.77-3.6-1.9-5.82C225.28,88.01,225.36,87.71,225.51,87.45z"/>
	</g>
	<path class="st19" d="M214.18,93.38c-3.14,1.37-5.15,4.44-5.55,7.84c-0.11,0.96-0.17,2.03-0.1,3.14c0.24,4.04,5.13,5.99,6.46,8.48
		c2.85,5.33,6.64,6.46,10.93,3.64c4.29-2.82,0.49-10.9,0.98-14.69c0.49-3.8-2.82-9.06-9.8-9.06
		C216.06,92.73,215.07,92.99,214.18,93.38z"/>
	<circle class="st1" cx="213.92" cy="103.99" r="3.55"/>
	<circle class="st1" cx="221.76" cy="100.44" r="3.55"/>
	<path class="st1" d="M218.7,108.32c0.12,0.59,0.79,0.69,1.08,0.18c0.15-0.27,0.38-0.55,0.71-0.7c0.83-0.37,1.43,0.25,1.43-0.62
		s-2.39-2.23-2.86-1.97C218.53,105.5,218.48,107.24,218.7,108.32z"/>
	<circle class="st27" cx="235.96" cy="137.3" r="6.49"/>
	<circle class="st19" cx="237.06" cy="133.63" r="2.45"/>
	<path class="st27" d="M181.29,291.83v14.23c0,3.2-2.59,5.79-5.79,5.79h0c-3.2,0-5.79-2.59-5.79-5.79v-14.23h-11.39v15.34
		c0,7.25,5.88,13.13,13.13,13.13h8.08c7.25,0,13.13-5.88,13.13-13.13v-15.34H181.29z"/>
	<polygon class="st27" points="136.84,312.59 136.84,291.83 125.27,291.83 125.27,319.38 156.49,319.38 156.49,312.59 	"/>
	<polygon class="st27" points="225,291.83 225,309.83 210.5,291.83 196.71,291.83 196.71,319.57 208.29,319.57 208.29,301.57 
		223.31,319.57 236.76,319.57 236.76,291.83 	"/>
	<polygon class="st27" points="315.8,298.81 315.8,291.83 284.14,291.83 284.14,319.57 317.57,319.57 317.57,312.22 295.53,312.22 
		295.53,308.36 312.61,308.36 312.61,303.04 295.53,303.04 295.53,298.81 	"/>
	<g>
		<g>
			<path class="st27" d="M266.97,291.83h-24.7v27.73h24.7c7.66,0,13.87-6.21,13.87-13.87S274.63,291.83,266.97,291.83z
				 M268.71,305.52c0,3.8-3.08,6.89-6.89,6.89h-8.17v-13.78h8.17C265.63,298.63,268.71,301.71,268.71,305.52L268.71,305.52z"/>
			<path class="st27" d="M107.45,291.83H85.04v27.55h11.57v-7.9h13.22c5.43,0,11.76-2.2,11.76-9.83
				C121.59,293.85,112.88,291.83,107.45,291.83z M110.39,301.84c0,2.48-2.75,2.66-4.22,2.66h-9.73v-5.33h9.73
				C107.63,299.18,110.39,299.18,110.39,301.84L110.39,301.84z"/>
		</g>
	</g>
	<path class="st27" d="M355.96,313.32c-0.55-2.57-3.12-3.12-3.12-3.12s4.78-2.02,4.78-8.63c0-6.61-5.88-9.73-15.8-9.73
		c-9.48,0-9.73,0-9.73,0h0h-11.75v27.55h11.76v-8.08c2.33,0,5.73,0,8.63,0c4.96,0,5.69,7.9,5.69,7.9h11.39
		C356.88,318.46,356.51,315.89,355.96,313.32z M338.69,304.69c-3.58,0-5.8,0-6.61,0v-6.06c2.05,0,4.27,0,6.24,0
		c5.51,0,7.53,0.73,7.53,2.94C345.86,303.77,343.29,304.69,338.69,304.69z"/>
	<path class="st28" d="M149.83,340.55c0,0.38,0.23,0.66,0.69,0.83c0.46,0.17,1.06,0.29,1.81,0.36s1.5,0.11,2.45,0.13
		c0.95,0.02,1.34,0.07,2.34,0.14c1,0.08,1.98,0.21,2.94,0.4c0.95,0.19,1.8,0.5,2.55,0.92c0.75,0.42,1.35,0.98,1.81,1.68
		c0.46,0.69,0.69,1.59,0.69,2.68c0,0.35-0.03,0.73-0.09,1.14s-0.19,0.84-0.4,1.26c-0.21,0.43-0.51,0.84-0.9,1.24
		c-0.39,0.4-0.91,0.75-1.56,1.05c-0.65,0.3-1.45,0.55-2.4,0.73c-0.95,0.18-2.09,0.27-3.41,0.27h-3.33c-1.32,0-2.45-0.11-3.41-0.34
		c-0.95-0.22-1.75-0.52-2.4-0.87c-0.65-0.35-1.17-0.77-1.56-1.23c-0.39-0.47-0.69-0.94-0.9-1.42s-0.34-0.94-0.4-1.4
		c-0.06-0.46-0.09-0.86-0.09-1.21h4.91c0,0.14,0.03,0.31,0.09,0.52c0.06,0.21,0.18,0.41,0.35,0.6c0.17,0.19,0.43,0.36,0.77,0.49
		s0.78,0.21,1.31,0.21h5.76c0.69,0,1.16-0.1,1.39-0.31s0.35-0.45,0.35-0.73c0-0.42-0.23-0.72-0.69-0.91
		c-0.46-0.19-1.06-0.32-1.81-0.39c-0.75-0.07-1.44-0.11-2.4-0.12s-1.1-0.05-2.09-0.13c-1-0.08-5.11-0.52-5.85-0.92
		c-0.75-0.41-1.35-0.96-1.81-1.65c-0.46-0.69-0.69-1.59-0.69-2.68c0-0.54,0.08-1.13,0.25-1.79c0.16-0.66,0.55-1.28,1.14-1.86
		c0.6-0.58,1.83-1.42,3-1.82c1.17-0.4,2.75-0.6,4.75-0.6h3.3c1.33,0,2.48,0.11,3.43,0.34s1.76,0.52,2.41,0.88s1.17,0.78,1.56,1.24
		c0.39,0.46,0.69,0.93,0.9,1.42s0.34,0.95,0.4,1.4c0.06,0.45,0.09,0.86,0.09,1.22h-4.94c0-0.14-0.03-0.31-0.08-0.52
		c-0.05-0.21-0.17-0.41-0.35-0.6c-0.18-0.19-0.44-0.36-0.77-0.49c-0.33-0.14-0.77-0.21-1.33-0.21h-6.07c-0.71,0-1.17,0.1-1.39,0.3
		C149.94,340.01,149.83,340.26,149.83,340.55z"/>
	<path class="st28" d="M216.68,334.83l-8.64,18.56H202l-4.39-10.84l-4.39,10.84h-6.11l-8.52-18.56h6.62l5.33,13.1l4.68-13.1h4.78
		l4.68,13.1l5.3-13.1H216.68z"/>
	<path class="st28" d="M247.45,334.83l10.8,18.56h-6.38l-2.2-3.03h-11.4l-2.2,3.03h-6.38l10.83-18.56H247.45z M247.27,345.97
		l-3.28-7.05l-3.31,7.05H247.27z"/>
	<path class="st28" d="M286.9,334.83c0.58,0,1.22,0.02,1.91,0.06c0.69,0.04,1.38,0.14,2.07,0.3c0.69,0.16,1.36,0.39,1.99,0.69
		c0.64,0.3,1.2,0.71,1.69,1.24c0.49,0.52,0.89,1.16,1.19,1.91c0.3,0.75,0.45,1.67,0.45,2.74c0,1.08-0.15,1.99-0.45,2.74
		c-0.3,0.75-0.7,1.39-1.19,1.91c-0.49,0.52-1.05,0.93-1.69,1.24c-0.64,0.3-1.3,0.53-1.99,0.69c-0.69,0.16-1.38,0.26-2.07,0.3
		c-0.69,0.04-1.33,0.07-1.91,0.07h-6.86v4.68h-7.09v-18.56H286.9z M287.33,344.06c0.69,0,1.26-0.05,1.71-0.16
		c0.45-0.1,0.8-0.25,1.05-0.44c0.25-0.19,0.43-0.43,0.53-0.71s0.15-0.61,0.15-0.98c0-0.36-0.05-0.68-0.15-0.96
		c-0.1-0.28-0.28-0.52-0.53-0.71c-0.26-0.2-0.6-0.35-1.05-0.44c-0.45-0.1-1.01-0.14-1.71-0.14h-7.29v4.55H287.33z"/>
</g>
</svg>
